Coordinates
version=1
nRows=16
nColumns=40
inDegrees=yes

Units are S.I. units (second, meters, Newtons, ...)
If the header above contains a line with 'inDegrees', this indicates whether rotational values are in degrees (yes) or radians (no).

endheader
time	pelvis_tilt	pelvis_list	pelvis_rotation	pelvis_tx	pelvis_ty	pelvis_tz	hip_flexion_r	hip_adduction_r	hip_rotation_r	knee_angle_r	knee_angle_r_beta	ankle_angle_r	subtalar_angle_r	mtp_angle_r	hip_flexion_l	hip_adduction_l	hip_rotation_l	knee_angle_l	knee_angle_l_beta	ankle_angle_l	subtalar_angle_l	mtp_angle_l	lumbar_extension	lumbar_bending	lumbar_rotation	arm_flex_r	arm_add_r	arm_rot_r	elbow_flex_r	pro_sup_r	wrist_flex_r	wrist_dev_r	arm_flex_l	arm_add_l	arm_rot_l	elbow_flex_l	pro_sup_l	wrist_flex_l	wrist_dev_l
      2.42500000	    -20.42527525	     -4.94519292	      3.62455498	     -0.30860333	      0.83297627	     -0.98631869	     27.19466759	     -6.43120788	      6.81097818	     88.70158873	      1.54813478	    -21.08395341	      0.00000000	      0.00000000	     59.50086389	     -4.06356860	     -4.13119508	     67.57913526	      1.17947842	     14.45043181	      0.00000000	      0.00000000	     -8.35837536	     -6.48587093	      9.58385474	     73.34026696	     -8.23064083	     29.63774187	     88.04002174	      4.29026422	      0.00000000	      0.00000000	     78.19815490	    -14.65916730	     32.30558749	     85.04649270	     70.21364990	      0.00000000	      0.00000000
      2.43000000	    -20.51472307	     -4.99601830	      3.62572339	     -0.30900809	      0.83188408	     -0.98618301	     27.20354455	     -6.40663457	      6.75551717	     88.70869012	      1.54825872	    -21.00170476	      0.00000000	      0.00000000	     59.77736207	     -4.07430048	     -4.02168243	     67.83947482	      1.18402220	     14.47656883	      0.00000000	      0.00000000	     -8.40248553	     -6.44196720	      9.52044613	     73.44019283	     -8.11526121	     29.67837202	     87.89768791	      4.44791919	      0.00000000	      0.00000000	     78.30270323	    -14.74441924	     32.01021980	     84.86443701	     75.15769746	      0.00000000	      0.00000000
      2.43500000	    -20.60544044	     -4.91661261	      3.59177883	     -0.30939114	      0.83102558	     -0.98610306	     27.19929761	     -6.48566713	      6.82731996	     88.61218083	      1.54657431	    -21.41807905	      0.00000000	      0.00000000	     59.96263079	     -4.01446447	     -4.04983069	     67.97907565	      1.18645869	     14.54351755	      0.00000000	      0.00000000	     -8.47626947	     -6.56029800	      9.52900623	     73.47576757	     -8.17947532	     29.73766818	     88.01883284	      4.35222480	      0.00000000	      0.00000000	     78.33605172	    -14.77623179	     32.17968033	     85.02571226	     73.04359208	      0.00000000	      0.00000000
      2.44000000	    -20.71308984	     -4.92598928	      3.54850760	     -0.30983668	      0.82996902	     -0.98591642	     27.25737364	     -6.45097503	      6.86285975	     88.69791172	      1.54807060	    -21.34945713	      0.00000000	      0.00000000	     60.22839400	     -4.03768737	     -4.01536533	     68.19495514	      1.19022650	     14.65092224	      0.00000000	      0.00000000	     -8.50503524	     -6.58356010	      9.55619522	     73.57276731	     -8.16398476	     29.74177261	     87.95832963	      4.39399418	      0.00000000	      0.00000000	     78.41636845	    -14.79277230	     32.06800210	     85.02109816	     74.64077145	      0.00000000	      0.00000000
      2.44500000	    -20.76178506	     -4.95654376	      3.51914203	     -0.31011276	      0.82905805	     -0.98579894	     27.15240173	     -6.39067225	      6.93334128	     88.57733170	      1.54596608	    -21.38792227	      0.00000000	      0.00000000	     60.40887358	     -4.07467096	     -3.98474984	     68.39842313	      1.19377769	     14.75242944	      0.00000000	      0.00000000	     -8.58218835	     -6.58768729	      9.66262892	     73.60202969	     -8.27156080	     29.72454051	     88.07286047	      4.23076639	      0.00000000	      0.00000000	     78.49227146	    -14.66873897	     32.28631627	     85.00491170	     72.55112535	      0.00000000	      0.00000000
      2.45000000	    -20.85447291	     -4.94580728	      3.42974326	     -0.31057368	      0.82812054	     -0.98558275	     27.21720115	     -6.37400489	      6.99601286	     88.59127308	      1.54620940	    -21.55526250	      0.00000000	      0.00000000	     60.63125015	     -4.14242859	     -4.02411993	     68.58694491	      1.19706801	     14.81949019	      0.00000000	      0.00000000	     -8.63340729	     -6.61958369	      9.70156710	     73.68268304	     -8.23810606	     29.76317756	     87.97966064	      4.49243788	      0.00000000	      0.00000000	     78.53078628	    -14.71917723	     32.05196921	     84.98206903	     75.24615710	      0.00000000	      0.00000000
      2.45500000	    -20.96030093	     -4.95690872	      3.41326766	     -0.31095911	      0.82706887	     -0.98540017	     27.24087231	     -6.34218831	      7.01533819	     88.59875671	      1.54634002	    -21.64609034	      0.00000000	      0.00000000	     60.88105001	     -4.12151165	     -3.93406013	     68.78695896	      1.20055892	     14.94118514	      0.00000000	      0.00000000	     -8.66818990	     -6.64900355	      9.74694565	     73.72601814	     -8.30840616	     29.76019551	     88.07979155	      4.31099921	      0.00000000	      0.00000000	     78.61653319	    -14.68921026	     32.35066146	     85.08488405	     72.13179042	      0.00000000	      0.00000000
      2.46000000	    -20.99882213	     -4.98529296	      3.43761642	     -0.31121212	      0.82610720	     -0.98537175	     27.16399802	     -6.34606951	      6.95597348	     88.57204252	      1.54587377	    -21.66401417	      0.00000000	      0.00000000	     61.04997997	     -4.08721923	     -3.85858982	     68.98079936	      1.20394207	     15.11423638	      0.00000000	      0.00000000	     -8.76043496	     -6.62344274	      9.71035374	     73.80118541	     -8.29250112	     29.79313695	     88.02040867	      4.45244256	      0.00000000	      0.00000000	     78.65218056	    -14.68894852	     32.12489821	     85.01915068	     75.00178831	      0.00000000	      0.00000000
      2.46500000	    -21.12666977	     -4.96580297	      3.37167520	     -0.31167655	      0.82511006	     -0.98523169	     27.24100277	     -6.35361679	      7.01739555	     88.59773744	      1.54632223	    -21.63604635	      0.00000000	      0.00000000	     61.31875902	     -4.09648141	     -3.82769103	     69.16188792	      1.20710266	     15.12840339	      0.00000000	      0.00000000	     -8.77850042	     -6.67450918	      9.75160157	     73.82420888	     -8.34221972	     29.83337475	     88.15918234	      4.26986340	      0.00000000	      0.00000000	     78.72063285	    -14.72365992	     32.37263271	     85.16778080	     72.15182201	      0.00000000	      0.00000000
      2.47000000	    -21.19877191	     -4.90655551	      3.29301709	     -0.31203689	      0.82420342	     -0.98488353	     27.24053686	     -6.31942491	      7.13988963	     88.56816622	      1.54580611	    -21.77956393	      0.00000000	      0.00000000	     61.50399436	     -4.10732620	     -3.86884692	     69.34730559	      1.21033881	     15.28558407	      0.00000000	      0.00000000	     -8.85548704	     -6.78965740	      9.79594056	     73.89911783	     -8.31266058	     29.85128143	     88.13805066	      4.21595223	      0.00000000	      0.00000000	     78.79534325	    -14.75939064	     32.42631594	     85.23962891	     71.46295628	      0.00000000	      0.00000000
      2.47500000	    -21.31065286	     -4.87718523	      3.23247489	     -0.31229317	      0.82311942	     -0.98477553	     27.29092294	     -6.35915864	      7.17062920	     88.59246335	      1.54623018	    -21.92027280	      0.00000000	      0.00000000	     61.73995604	     -4.08575913	     -3.83951515	     69.55981149	      1.21404774	     15.43886492	      0.00000000	      0.00000000	     -8.83704040	     -6.84643671	      9.86270699	     73.88938337	     -8.37120689	     29.83493918	     88.14740907	      4.34111640	      0.00000000	      0.00000000	     78.82716243	    -14.73559529	     32.52841248	     85.31359780	     70.17829524	      0.00000000	      0.00000000
      2.48000000	    -21.35876387	     -4.85567538	      3.21966883	     -0.31262229	      0.82216461	     -0.98464182	     27.22289584	     -6.32969751	      7.25837886	     88.55245684	      1.54553193	    -21.89714168	      0.00000000	      0.00000000	     61.94149403	     -4.09349919	     -3.86456243	     69.79584898	      1.21816737	     15.41565057	      0.00000000	      0.00000000	     -8.94479519	     -6.89054100	      9.84250786	     73.97011169	     -8.30878229	     29.82446554	     88.07955116	      4.44867689	      0.00000000	      0.00000000	     78.91998055	    -14.74775622	     32.20876975	     85.09020024	     75.38625215	      0.00000000	      0.00000000
      2.48500000	    -21.39872306	     -4.86033804	      3.23054168	     -0.31282490	      0.82121400	     -0.98462545	     27.11903300	     -6.31442236	      7.26246100	     88.47154656	      1.54411978	    -22.07194593	      0.00000000	      0.00000000	     62.11031587	     -3.99854150	     -3.69998875	     69.99357433	      1.22161833	     15.55730391	      0.00000000	      0.00000000	     -9.04290637	     -6.90214321	      9.88450120	     73.97378724	     -8.38342181	     29.81148645	     88.15761821	      4.74258988	      0.00000000	      0.00000000	     78.98899470	    -14.74833399	     32.40715734	     85.09732451	     74.09397488	      0.00000000	      0.00000000
      2.49000000	    -21.60545562	     -4.83525681	      3.10531385	     -0.31326007	      0.82003718	     -0.98420259	     27.31798006	     -6.25568825	      7.38467492	     88.56075274	      1.54567672	    -22.07607905	      0.00000000	      0.00000000	     62.43625129	     -4.09491689	     -3.77755834	     70.12979755	      1.22399587	     15.66884553	      0.00000000	      0.00000000	     -8.91794403	     -6.98314905	      9.92600384	     74.01361292	     -8.32957286	     29.87152950	     88.09576019	      4.44202769	      0.00000000	      0.00000000	     79.02586008	    -14.78421531	     32.36379504	     85.08893828	     74.67676243	      0.00000000	      0.00000000
      2.49500000	    -21.64150753	     -4.75775627	      3.07731778	     -0.31353208	      0.81902151	     -0.98404655	     27.24642844	     -6.30883347	      7.46670826	     88.53216990	      1.54517786	    -22.12578610	      0.00000000	      0.00000000	     62.60432145	     -4.07382389	     -3.83208398	     70.36806869	      1.22815449	     15.77555394	      0.00000000	      0.00000000	     -9.01704562	     -7.09728386	      9.92291031	     74.05338022	     -8.31287501	     29.83614205	     88.10383294	      4.32770872	      0.00000000	      0.00000000	     79.10884992	    -14.80734808	     32.52302754	     85.17963494	     73.00835369	      0.00000000	      0.00000000
      2.50000000	    -21.71654421	     -4.74296253	      3.02617569	     -0.31380322	      0.81805438	     -0.98389192	     27.26025362	     -6.29866067	      7.46903506	     88.52890203	      1.54512082	    -22.30973184	      0.00000000	      0.00000000	     62.77617992	     -4.05582844	     -3.79646969	     70.51404779	      1.23070230	     15.91771904	      0.00000000	      0.00000000	     -9.06526794	     -7.13978684	      9.95598086	     74.06399679	     -8.30883812	     29.81063420	     88.13165863	      4.46328140	      0.00000000	      0.00000000	     79.15467427	    -14.82713529	     32.36714295	     85.11337617	     75.33655809	      0.00000000	      0.00000000
